<svg width="14" height="20" viewBox="0 0 14 20" fill="none" xmlns="http://www.w3.org/2000/svg">
<path d="M3.66667 5.00002V3.33335C3.66667 2.89133 3.84227 2.4674 4.15483 2.15484C4.46739 1.84228 4.89131 1.66669 5.33334 1.66669H8.66667C9.1087 1.66669 9.53262 1.84228 9.84518 2.15484C10.1577 2.4674 10.3333 2.89133 10.3333 3.33335V5.00002M12.8333 5.00002V16.6667C12.8333 17.1087 12.6577 17.5326 12.3452 17.8452C12.0326 18.1578 11.6087 18.3334 11.1667 18.3334H2.83334C2.39131 18.3334 1.96739 18.1578 1.65483 17.8452C1.34227 17.5326 1.16667 17.1087 1.16667 16.6667V5.00002H12.8333Z" stroke="#3D3D4D" stroke-width="1.5" stroke-linecap="round" stroke-linejoin="round"/>
</svg>
